<svg xmlns="http://www.w3.org/2000/svg" width="512" height="512" viewBox="0 0 512 512"><defs><linearGradient id="p" x1="0%" y1="10%" x2="100%" y2="90%"><stop offset="0%" stop-color="#0f172a"/><stop offset="48%" stop-color="#2563eb"/><stop offset="100%" stop-color="#06b6d4"/></linearGradient><linearGradient id="w"><stop offset="0%" stop-color="#2563eb"/><stop offset="100%" stop-color="#06b6d4"/></linearGradient></defs><g><g fill="none" stroke="url(#p)" stroke-linejoin="round" stroke-linecap="round"><path d="M360,190 359.93,185.9 359.72,181.81 359.36,177.72 358.86,173.64 358.23,169.57 357.45,165.53 356.53,161.5 355.48,157.49 354.3,153.51 352.98,149.57 351.53,145.65 349.96,141.77 348.26,137.93 346.44,134.13 344.5,130.38 342.45,126.68 340.28,123.02 338.01,119.43 335.63,115.89 333.15,112.41 330.58,108.99 327.92,105.64 325.17,102.36 322.34,99.15 319.43,96.01 316.45,92.96 313.41,89.98 310.3,87.08 307.13,84.26 303.91,81.53 300.64,78.9 297.33,76.35 293.99,73.89 290.61,71.53 287.2,69.26 283.77,67.1 280.33,65.03 276.87,63.07 273.41,61.21 269.95,59.45 266.48,57.8 263.03,56.26 259.58,54.83 256.15,53.5 252.75,52.29 249.36,51.2 246.01,50.21 242.69,49.34 239.4,48.58 236.16,47.94 232.95,47.42 229.8,47.01 226.69,46.71 223.64,46.54 220.64,46.48 217.7,46.54 214.82,46.71 212,47.01 209.24,47.42 206.56,47.94 203.93,48.58 201.38,49.34 198.9,50.21 196.49,51.2 194.15,52.29 191.88,53.5 189.68,54.83 187.56,56.26 185.51,57.8 183.54,59.45 181.64,61.21 179.81,63.07 178.05,65.03 176.36,67.1 174.75,69.26 173.2,71.53 171.73,73.89 170.32,76.35 168.98,78.9 167.7,81.53 166.48,84.26 165.33,87.08 164.24,89.98 163.21,92.96 162.24,96.01 161.32,99.15 160.46,102.36 159.65,105.64 158.89,108.99 158.17,112.41 157.51,115.89 156.89,119.43 156.32,123.02 155.79,126.68 155.3,130.38 154.84,134.13 154.43,137.93 154.06,141.77 153.71,145.65 153.41,149.57 153.13,153.51 152.89,157.49 152.68,161.5 152.5,165.53 152.34,169.57 152.22,173.64 152.12,177.72 152.05,181.81 152.01,185.9 152,190 152.01,194.1 152.05,198.19 152.12,202.28 152.22,206.36 152.34,210.43 152.5,214.47 152.68,218.5 152.89,222.51 153.13,226.49 153.41,230.43 153.71,234.35 154.06,238.23 154.43,242.07 154.84,245.87 155.3,249.62 155.79,253.32 156.32,256.98 156.89,260.57 157.51,264.11 158.17,267.59 158.89,271.01 159.65,274.36 160.46,277.64 161.32,280.85 162.24,283.99 163.21,287.04 164.24,290.02 165.33,292.92 166.48,295.74 167.7,298.47 168.98,301.1 170.32,303.65 171.73,306.11 173.2,308.47 174.75,310.74 176.36,312.9 178.05,314.97 179.81,316.93 181.64,318.79 183.54,320.55 185.51,322.2 187.56,323.74 189.68,325.17 191.88,326.5 194.15,327.71 196.49,328.8 198.9,329.79 201.38,330.66 203.93,331.42 206.56,332.06 209.24,332.58 212,332.99 214.82,333.29 217.7,333.46 220.64,333.52 223.64,333.46 226.69,333.29 229.8,332.99 232.95,332.58 236.16,332.06 239.4,331.42 242.69,330.66 246.01,329.79 249.36,328.8 252.75,327.71 256.15,326.5 259.58,325.17 263.03,323.74 266.48,322.2 269.95,320.55 273.41,318.79 276.87,316.93 280.33,314.97 283.77,312.9 287.2,310.74 290.61,308.47 293.99,306.11 297.33,303.65 300.64,301.1 303.91,298.47 307.13,295.74 310.3,292.92 313.41,290.02 316.45,287.04 319.43,283.99 322.34,280.85 325.17,277.64 327.92,274.36 330.58,271.01 333.15,267.59 335.63,264.11 338.01,260.57 340.28,256.98 342.45,253.32 344.5,249.62 346.44,245.87 348.26,242.07 349.96,238.23 351.53,234.35 352.98,230.43 354.3,226.49 355.48,222.51 356.53,218.5 357.45,214.47 358.23,210.43 358.86,206.36 359.36,202.28 359.72,198.19 359.93,194.1Z" stroke-width="13.1"/><path d="M326.72,190 326.67,187.21 326.53,184.43 326.28,181.65 325.95,178.88 325.51,176.11 324.99,173.36 324.36,170.62 323.65,167.9 322.84,165.19 321.95,162.5 320.96,159.84 319.89,157.2 318.74,154.59 317.5,152.01 316.18,149.46 314.78,146.94 313.31,144.46 311.77,142.01 310.15,139.6 308.47,137.24 306.72,134.91 304.91,132.64 303.04,130.4 301.11,128.22 299.14,126.09 297.11,124.01 295.04,121.98 292.92,120.01 290.77,118.1 288.58,116.24 286.36,114.45 284.11,112.72 281.83,111.05 279.53,109.44 277.22,107.9 274.89,106.43 272.54,105.02 270.19,103.69 267.84,102.42 265.48,101.23 263.13,100.1 260.78,99.06 258.44,98.08 256.1,97.18 253.79,96.36 251.49,95.61 249.21,94.94 246.95,94.35 244.71,93.84 242.51,93.4 240.33,93.04 238.18,92.76 236.07,92.57 233.99,92.45 231.96,92.41 229.96,92.45 228,92.57 226.08,92.76 224.21,93.04 222.38,93.4 220.6,93.84 218.86,94.35 217.17,94.94 215.53,95.61 213.94,96.36 212.4,97.18 210.91,98.08 209.46,99.06 208.07,100.1 206.73,101.23 205.43,102.42 204.19,103.69 202.99,105.02 201.85,106.43 200.75,107.9 199.7,109.44 198.69,111.05 197.74,112.72 196.82,114.45 195.95,116.24 195.13,118.1 194.35,120.01 193.61,121.98 192.9,124.01 192.24,126.09 191.62,128.22 191.03,130.4 190.48,132.64 189.96,134.91 189.48,137.24 189.03,139.6 188.61,142.01 188.22,144.46 187.86,146.94 187.52,149.46 187.21,152.01 186.93,154.59 186.68,157.2 186.45,159.84 186.24,162.5 186.05,165.19 185.88,167.9 185.74,170.62 185.62,173.36 185.51,176.11 185.43,178.88 185.36,181.65 185.32,184.43 185.29,187.21 185.28,190 185.29,192.79 185.32,195.57 185.36,198.35 185.43,201.12 185.51,203.89 185.62,206.64 185.74,209.38 185.88,212.1 186.05,214.81 186.24,217.5 186.45,220.16 186.68,222.8 186.93,225.41 187.21,227.99 187.52,230.54 187.86,233.06 188.22,235.54 188.61,237.99 189.03,240.4 189.48,242.76 189.96,245.09 190.48,247.36 191.03,249.6 191.62,251.78 192.24,253.91 192.9,255.99 193.61,258.02 194.35,259.99 195.13,261.9 195.95,263.76 196.82,265.55 197.74,267.28 198.69,268.95 199.7,270.56 200.75,272.1 201.85,273.57 202.99,274.98 204.19,276.31 205.43,277.58 206.73,278.77 208.07,279.9 209.46,280.94 210.91,281.92 212.4,282.82 213.94,283.64 215.53,284.39 217.17,285.06 218.86,285.65 220.6,286.16 222.38,286.6 224.21,286.96 226.08,287.24 228,287.43 229.96,287.55 231.96,287.59 233.99,287.55 236.07,287.43 238.18,287.24 240.33,286.96 242.51,286.6 244.71,286.16 246.95,285.65 249.21,285.06 251.49,284.39 253.79,283.64 256.1,282.82 258.44,281.92 260.78,280.94 263.13,279.9 265.48,278.77 267.84,277.58 270.19,276.31 272.54,274.98 274.89,273.57 277.22,272.1 279.53,270.56 281.83,268.95 284.11,267.28 286.36,265.55 288.58,263.76 290.77,261.9 292.92,259.99 295.04,258.02 297.11,255.99 299.14,253.91 301.11,251.78 303.04,249.6 304.91,247.36 306.72,245.09 308.47,242.76 310.15,240.4 311.77,237.99 313.31,235.54 314.78,233.06 316.18,230.54 317.5,227.99 318.74,225.41 319.89,222.8 320.96,220.16 321.95,217.5 322.84,214.81 323.65,212.1 324.36,209.38 324.99,206.64 325.51,203.89 325.95,201.12 326.28,198.35 326.53,195.57 326.67,192.79Z" stroke-width="6.32" opacity=".78"/><path d="M295.52,190 295.49,188.44 295.41,186.89 295.28,185.33 295.09,183.78 294.85,182.24 294.55,180.7 294.2,179.17 293.8,177.65 293.35,176.14 292.85,174.63 292.3,173.15 291.7,171.67 291.06,170.21 290.37,168.77 289.63,167.34 288.85,165.94 288.03,164.55 287.16,163.18 286.26,161.84 285.32,160.51 284.34,159.22 283.33,157.94 282.29,156.7 281.21,155.48 280.1,154.29 278.97,153.12 277.81,151.99 276.63,150.89 275.43,149.82 274.21,148.78 272.96,147.78 271.71,146.81 270.43,145.88 269.15,144.98 267.86,144.12 266.55,143.3 265.25,142.51 263.93,141.77 262.62,141.06 261.3,140.39 259.98,139.76 258.67,139.18 257.36,138.63 256.06,138.13 254.76,137.67 253.48,137.25 252.2,136.88 250.94,136.55 249.69,136.26 248.46,136.02 247.24,135.82 246.04,135.66 244.86,135.55 243.7,135.48 242.56,135.46 241.45,135.48 240.35,135.55 239.28,135.66 238.23,135.82 237.21,136.02 236.21,136.26 235.24,136.55 234.3,136.88 233.38,137.25 232.5,137.67 231.63,138.13 230.8,138.63 229.99,139.18 229.22,139.76 228.46,140.39 227.74,141.06 227.05,141.77 226.38,142.51 225.74,143.3 225.12,144.12 224.54,144.98 223.98,145.88 223.44,146.81 222.93,147.78 222.45,148.78 221.98,149.82 221.55,150.89 221.13,151.99 220.74,153.12 220.37,154.29 220.02,155.48 219.69,156.7 219.39,157.94 219.1,159.22 218.83,160.51 218.57,161.84 218.34,163.18 218.12,164.55 217.92,165.94 217.73,167.34 217.56,168.77 217.4,170.21 217.26,171.67 217.13,173.15 217.01,174.63 216.91,176.14 216.82,177.65 216.74,179.17 216.67,180.7 216.61,182.24 216.56,183.78 216.53,185.33 216.5,186.89 216.49,188.44 216.48,190 216.49,191.56 216.5,193.11 216.53,194.67 216.56,196.22 216.61,197.76 216.67,199.3 216.74,200.83 216.82,202.35 216.91,203.86 217.01,205.37 217.13,206.85 217.26,208.33 217.4,209.79 217.56,211.23 217.73,212.66 217.92,214.06 218.12,215.45 218.34,216.82 218.57,218.16 218.83,219.49 219.1,220.78 219.39,222.06 219.69,223.3 220.02,224.52 220.37,225.71 220.74,226.88 221.13,228.01 221.55,229.11 221.98,230.18 222.45,231.22 222.93,232.22 223.44,233.19 223.98,234.12 224.54,235.02 225.12,235.88 225.74,236.7 226.38,237.49 227.05,238.23 227.74,238.94 228.46,239.61 229.22,240.24 229.99,240.82 230.8,241.37 231.63,241.87 232.5,242.33 233.38,242.75 234.3,243.12 235.24,243.45 236.21,243.74 237.21,243.98 238.23,244.18 239.28,244.34 240.35,244.45 241.45,244.52 242.56,244.54 243.7,244.52 244.86,244.45 246.04,244.34 247.24,244.18 248.46,243.98 249.69,243.74 250.94,243.45 252.2,243.12 253.48,242.75 254.76,242.33 256.06,241.87 257.36,241.37 258.67,240.82 259.98,240.24 261.3,239.61 262.62,238.94 263.93,238.23 265.25,237.49 266.55,236.7 267.86,235.88 269.15,235.02 270.43,234.12 271.71,233.19 272.96,232.22 274.21,231.22 275.43,230.18 276.63,229.11 277.81,228.01 278.97,226.88 280.1,225.71 281.21,224.52 282.29,223.3 283.33,222.06 284.34,220.78 285.32,219.49 286.26,218.16 287.16,216.82 288.03,215.45 288.85,214.06 289.63,212.66 290.37,211.23 291.06,209.79 291.7,208.33 292.3,206.85 292.85,205.37 293.35,203.86 293.8,202.35 294.2,200.83 294.55,199.3 294.85,197.76 295.09,196.22 295.28,194.67 295.41,193.11 295.49,191.56Z" stroke-width="3.63" opacity=".58"/></g><g fill="none" stroke="#06b6d4" stroke-linecap="round"><path d="M317.46,286.03 319.12,284.32 320.75,282.58 322.37,280.82 323.96,279.03 325.53,277.23 327.07,275.4 328.58,273.55 330.07,271.67 331.52,269.78 332.95,267.87 334.35,265.93 335.72,263.98 337.06,262.01 338.37,260.02 339.64,258.01 340.88,255.98 342.09,253.94 343.26,251.88 344.4,249.81 345.5,247.72 346.56,245.62 347.59,243.5 348.58,241.37 349.53,239.22 350.45,237.06 351.32,234.89 352.16,232.71 352.95,230.52 353.7,228.32 354.42,226.11 355.09,223.89 355.72,221.66 356.31,219.42 356.85,217.17 357.35,214.92 357.81,212.66 358.23,210.4 358.6,208.13 358.93,205.86 359.22,203.58 359.46,201.3 359.66,199.01 359.81,196.72 359.92,194.44 359.98,192.15 360,189.86 359.97,187.57 359.91,185.28 359.79,182.99 359.63,180.7 359.43,178.42 359.18,176.14 358.89,173.86 358.56,171.59 358.18,169.32 357.76,167.05 357.29,164.8 356.79,162.54 356.23,160.3 355.64,158.06 355.01,155.84 354.33,153.62 353.61,151.4 352.85,149.2 352.05,147.01 351.21,144.83 350.33,142.67 349.42,140.51 348.46,138.37 347.47,136.24" stroke-width="11.7" opacity=".9"/><path d="M304.91,247.36 305.74,246.34 306.55,245.3 307.36,244.25 308.15,243.19 308.93,242.13 309.69,241.05 310.44,239.97 311.18,238.88 311.9,237.78 312.61,236.67 313.3,235.56 313.98,234.44 314.64,233.31 315.29,232.17 315.92,231.02 316.53,229.87 317.13,228.71 317.72,227.55 318.28,226.38 318.83,225.2 319.36,224.02 319.88,222.83 320.37,221.64 320.85,220.44 321.32,219.23 321.76,218.02 322.19,216.81 322.59,215.59 322.98,214.36 323.35,213.14 323.7,211.91 324.04,210.67 324.35,209.43 324.65,208.19 324.92,206.95 325.18,205.7 325.41,204.45 325.63,203.2 325.83,201.94 326.01,200.69 326.16,199.43 326.3,198.17 326.42,196.9 326.52,195.64 326.6,194.38 326.66,193.11 326.7,191.85 326.72,190.58 326.72,189.32 326.7,188.05 326.66,186.79 326.6,185.52 326.51,184.26 326.41,183 326.29,181.74 326.15,180.48 325.99,179.22 325.81,177.96 325.61,176.71 325.4,175.45 325.16,174.2 324.9,172.96 324.62,171.71 324.33,170.47 324.01,169.23 323.68,168 323.32,166.77 322.95,165.54 322.56,164.32 322.15,163.1" stroke-width="6.79" opacity=".62"/></g></g><text x="256" y="442" text-anchor="middle" font-family="Inter, Segoe UI, Roboto, Helvetica Neue, Arial, sans-serif" font-size="104" font-weight="850" letter-spacing="0"><tspan fill="#0f172a">VEQ</tspan><tspan fill="url(#w)">Py</tspan></text></svg>
